# xmcd
#
# Track frame offsets:
#	150
#	12375
#	24692
#	33167
#	44740
#	53400
#	68740
#	79400
#	90980
#	103822
#
# Disc length: 1537 seconds
#
# Revision: 0
# Processed by: cddbd v1.5.1PL0 Copyright (c) Steve Scherf et al.
# Submitted via: dBpowerAMP V4.0
#
DISCID=7905ff0a
DTITLE=Conway Twitty and Loretta Lynn - Country Gospel Greats
DYEAR=2003
DGENRE=Country
TTITLE0=Clinging To A Saving Hand
TTITLE1=Who Will Pray For Me
TTITLE2=The Big Man Above
TTITLE3=Jesus Is A Soul Man
TTITLE4=I'm A Gettin' Ready To Go
TTITLE5=The Third Man
TTITLE6=In The Sweet Bye And Bye
TTITLE7=When I Hear My Children Pray
TTITLE8=Peace In The Valley
TTITLE9=You'll Never Walk Alone
EXTD=
EXTT0=
EXTT1=
EXTT2=
EXTT3=
EXTT4=
EXTT5=
EXTT6=
EXTT7=
EXTT8=
EXTT9=
PLAYORDER=
